<svg width="94" height="110" viewBox="0 0 94 110" fill="none" xmlns="http://www.w3.org/2000/svg">
<g id="Group">
<path id="Vector" d="M91.1865 12.6998L72.2948 9.65885C70.0365 15.1342 65.5279 19.0793 59.9821 19.6702C51.9511 20.5274 44.558 14.054 42.5894 4.88016L16.3789 0.665039C17.9209 8.62954 19.5373 22.3903 16.011 38.8672C12.3478 55.9703 4.81768 68.193 0.0155029 74.8464C1.98412 79.719 6.77847 89.6482 17.2713 97.9258C29.6466 107.695 42.6676 109.421 48.0608 109.812C56.7806 110.442 63.9076 108.904 68.3889 107.565C76.1616 97.5188 90.6072 75.8014 93.1825 45.3054C94.2666 32.4761 92.9751 21.3336 91.1865 12.6998Z" fill="#DD2B2B"/>
<path id="Vector_2" d="M7.27136 76.9679C13.8895 67.6218 27.889 43.3957 24.715 9.20117L37.1333 11.1972C40.9375 20.5041 49.3403 26.8522 58.5494 26.8522C59.2735 26.8522 60.0092 26.8131 60.7294 26.7348C66.9092 26.0773 72.3611 22.7154 76.0674 17.4631L85.159 18.9269C85.9927 24.1869 87.0142 33.6974 86.0592 45.2743C84.2002 67.8175 76.0909 87.629 61.9387 104.208" stroke="#F98282" stroke-width="2" stroke-miterlimit="10"/>
<path id="Vector_3" d="M70.7319 74.0584C77.2292 63.0456 73.9523 49.0772 63.4127 42.8589C52.873 36.6407 39.0618 40.5274 32.5644 51.5401C26.0671 62.5529 29.344 76.5213 39.8836 82.7396C50.4233 88.9578 64.2345 85.0711 70.7319 74.0584Z" fill="#CD1B1B"/>
<path id="Vector_4" d="M62.7295 55.7241L77.6254 43.4679C78.7255 42.5627 78.8862 40.9098 77.981 39.8097L73.3819 34.22C72.4767 33.1199 70.8238 32.9592 69.7237 33.8643L54.8278 46.1206C53.7277 47.0257 52.1018 46.8676 51.2237 45.7702L38.9675 30.8742C38.0624 29.7741 36.4094 29.6134 35.3093 30.5186L29.7196 35.1177C28.6195 36.0229 28.4588 37.6759 29.3639 38.776L41.6202 53.6719C42.5253 54.772 42.3672 56.3979 41.2698 57.2759L26.3739 69.5321C25.2738 70.4373 25.1131 72.0902 26.0182 73.1903L30.6173 78.78C31.5225 79.8801 33.1755 80.0408 34.2756 79.1357L49.1715 66.8795C50.2716 65.9743 51.8975 66.1324 52.7755 67.2298L65.0317 82.1258C65.9369 83.2259 67.5899 83.3866 68.6899 82.4814L74.2796 77.8823C75.3797 76.9771 75.5404 75.3242 74.6353 74.2241L62.3791 59.3281C61.4739 58.228 61.632 56.6022 62.7295 55.7241Z" fill="white"/>
</g>
</svg>
