<svg width="136" height="136" viewBox="0 0 136 136" fill="none" xmlns="http://www.w3.org/2000/svg">
<g filter="url(#filter0_d_1477_13525)">
<path d="M68.002 12H67.998C37.0712 12 12 37.0712 12 67.998V68.002C12 98.9288 37.0712 124 67.998 124H68.002C98.9288 124 124 98.9288 124 68.002V67.998C124 37.0712 98.9288 12 68.002 12Z" fill="white"/>
<path d="M107.186 26.6998L88.2948 23.6589C86.0365 29.1342 81.5279 33.0793 75.9821 33.6702C67.9511 34.5274 60.558 28.054 58.5894 18.8802L32.3789 14.665C33.9209 22.6295 35.5373 36.3903 32.011 52.8672C28.3478 69.9703 20.8177 82.193 16.0155 88.8464C17.9841 93.719 22.7785 103.648 33.2713 111.926C45.6466 121.695 58.6676 123.421 64.0608 123.812C72.7806 124.442 79.9076 122.904 84.3889 121.565C92.1616 111.519 106.607 89.8014 109.183 59.3054C110.267 46.4761 108.975 35.3336 107.186 26.6998Z" fill="#0E6BF0"/>
<path d="M23.2714 90.9679C29.8895 81.6218 43.889 57.3957 40.715 23.2012L53.1333 25.1972C56.9375 34.5041 65.3403 40.8522 74.5494 40.8522C75.2735 40.8522 76.0092 40.8131 76.7294 40.7348C82.9092 40.0773 88.3611 36.7154 92.0674 31.4631L101.159 32.9269C101.993 38.1869 103.014 47.6974 102.059 59.2743C100.2 81.8175 92.0909 101.629 77.9387 118.208" stroke="#297FFA" stroke-width="2" stroke-miterlimit="10"/>
<path d="M86.7319 88.0584C93.2292 77.0456 89.9523 63.0772 79.4127 56.8589C68.873 50.6407 55.0618 54.5274 48.5644 65.5401C42.0671 76.5529 45.344 90.5213 55.8836 96.7396C66.4233 102.958 80.2345 99.0711 86.7319 88.0584Z" fill="#0D62DB"/>
<path d="M38.3277 67.8304L44.415 62.3812C45.36 61.5342 46.8363 61.6542 47.628 62.6424L56.6217 73.869C57.3919 74.829 58.8077 74.9772 59.7598 74.1937L90.1464 49.3018C91.0771 48.5394 92.4501 48.6594 93.2346 49.5664L97.8705 54.9415C98.6658 55.8627 98.5516 57.2532 97.6138 58.0332L57.449 91.4872C56.4933 92.2812 55.0633 92.1365 54.293 91.166L38.0745 70.8021C37.3541 69.8986 37.4647 68.5998 38.3277 67.8269V67.8304Z" fill="white"/>
</g>
<defs>
<filter id="filter0_d_1477_13525" x="0" y="0" width="136" height="136" filterUnits="userSpaceOnUse" color-interpolation-filters="sRGB">
<feFlood flood-opacity="0" result="BackgroundImageFix"/>
<feColorMatrix in="SourceAlpha" type="matrix" values="0 0 0 0 0 0 0 0 0 0 0 0 0 0 0 0 0 0 127 0" result="hardAlpha"/>
<feOffset/>
<feGaussianBlur stdDeviation="6"/>
<feComposite in2="hardAlpha" operator="out"/>
<feColorMatrix type="matrix" values="0 0 0 0 0 0 0 0 0 0 0 0 0 0 0 0 0 0 0.05 0"/>
<feBlend mode="normal" in2="BackgroundImageFix" result="effect1_dropShadow_1477_13525"/>
<feBlend mode="normal" in="SourceGraphic" in2="effect1_dropShadow_1477_13525" result="shape"/>
</filter>
</defs>
</svg>
